<?xml version="1.0" encoding="UTF-8"?>
<svg width="194px" height="222px" viewBox="0 0 194 222" version="1.1" xmlns="http://www.w3.org/2000/svg" xmlns:xlink="http://www.w3.org/1999/xlink">
    <!-- Generator: Sketch 52.2 (67145) - http://www.bohemiancoding.com/sketch -->
    <title>Group 4</title>
    <desc>Created with Sketch.</desc>
    <g id="Page-2" stroke="none" stroke-width="1" fill="none" fill-rule="evenodd" stroke-linecap="round">
        <g id="Sky-Color" transform="translate(-297.000000, -2715.000000)" stroke="#FFFFFF" stroke-width="10">
            <g id="Group-4" transform="translate(291.000000, 2720.000000)">
                <g id="Group-3" transform="translate(82.000000, 0.000000)">
                    <g id="Group-2">
                        <path d="M21,0.5 L21,211.5" id="Line"></path>
                        <g id="Group" transform="translate(0.000000, 31.000000)">
                            <path d="M20.5822561,0.704540459 L41.7954595,21.9177439" id="Line-Copy-2" transform="translate(31.188858, 11.311142) scale(-1, 1) translate(-31.188858, -11.311142) "></path>
                            <path d="M0.204540459,0.704540459 L21.4177439,21.9177439" id="Line-Copy"></path>
                        </g>
                        <g id="Group-Copy-2" transform="translate(21.000000, 170.000000) scale(1, -1) translate(-21.000000, -170.000000) translate(0.000000, 159.000000)">
                            <path d="M20.5822561,0.704540459 L41.7954595,21.9177439" id="Line-Copy-2" transform="translate(31.188858, 11.311142) scale(-1, 1) translate(-31.188858, -11.311142) "></path>
                            <path d="M0.204540459,0.704540459 L21.4177439,21.9177439" id="Line-Copy"></path>
                        </g>
                    </g>
                </g>
                <g id="Group-3" transform="translate(103.000000, 106.000000) rotate(120.000000) translate(-103.000000, -106.000000) translate(82.000000, 0.000000)">
                    <g id="Group-2">
                        <path d="M21,0.5 L21,211.5" id="Line"></path>
                        <g id="Group" transform="translate(0.000000, 31.000000)">
                            <path d="M20.5822561,0.704540459 L41.7954595,21.9177439" id="Line-Copy-2" transform="translate(31.188858, 11.311142) scale(-1, 1) translate(-31.188858, -11.311142) "></path>
                            <path d="M0.204540459,0.704540459 L21.4177439,21.9177439" id="Line-Copy"></path>
                        </g>
                        <g id="Group-Copy-2" transform="translate(21.000000, 170.000000) scale(1, -1) translate(-21.000000, -170.000000) translate(0.000000, 159.000000)">
                            <path d="M20.5822561,0.704540459 L41.7954595,21.9177439" id="Line-Copy-2" transform="translate(31.188858, 11.311142) scale(-1, 1) translate(-31.188858, -11.311142) "></path>
                            <path d="M0.204540459,0.704540459 L21.4177439,21.9177439" id="Line-Copy"></path>
                        </g>
                    </g>
                </g>
                <g id="Group-3" transform="translate(103.000000, 106.000000) rotate(240.000000) translate(-103.000000, -106.000000) translate(82.000000, 0.000000)">
                    <g id="Group-2">
                        <path d="M21,0.5 L21,211.5" id="Line"></path>
                        <g id="Group" transform="translate(0.000000, 31.000000)">
                            <path d="M20.5822561,0.704540459 L41.7954595,21.9177439" id="Line-Copy-2" transform="translate(31.188858, 11.311142) scale(-1, 1) translate(-31.188858, -11.311142) "></path>
                            <path d="M0.204540459,0.704540459 L21.4177439,21.9177439" id="Line-Copy"></path>
                        </g>
                        <g id="Group-Copy-2" transform="translate(21.000000, 170.000000) scale(1, -1) translate(-21.000000, -170.000000) translate(0.000000, 159.000000)">
                            <path d="M20.5822561,0.704540459 L41.7954595,21.9177439" id="Line-Copy-2" transform="translate(31.188858, 11.311142) scale(-1, 1) translate(-31.188858, -11.311142) "></path>
                            <path d="M0.204540459,0.704540459 L21.4177439,21.9177439" id="Line-Copy"></path>
                        </g>
                    </g>
                </g>
            </g>
        </g>
    </g>
</svg>