<?xml version="1.0" encoding="UTF-8"?>
<svg width="200px" height="188px" viewBox="0 0 200 188" version="1.1" xmlns="http://www.w3.org/2000/svg" xmlns:xlink="http://www.w3.org/1999/xlink">
    <!-- Generator: Sketch 52.2 (67145) - http://www.bohemiancoding.com/sketch -->
    <title>Group 12</title>
    <desc>Created with Sketch.</desc>
    <g id="Page-2" stroke="none" stroke-width="1" fill="none" fill-rule="evenodd">
        <g id="Icons" transform="translate(-2334.000000, -3368.000000)">
            <g id="Group-12" transform="translate(2334.000000, 3368.000000)">
                <path d="M130,136.983901 L130,137 L48,137 L48,136.960731 C21.3129253,135.910915 0,113.944408 0,87 C0,59.3857625 22.3857625,37 50,37 C56.6808473,37 63.0556589,38.3102943 68.8814697,40.6879178 C79.5448544,16.7153301 103.57039,0 131.5,0 C169.331505,0 200,30.6684946 200,68.5 C200,106.331505 169.331505,137 131.5,137 C130.998724,137 130.498706,136.994616 130,136.983901 Z" id="Combined-Shape-Copy-5" fill="#FFFFFF"></path>
                <path d="M69.2009619,147.276279 L63.4951905,168.570508" id="Line-4-Copy" stroke="#3A90F2" stroke-width="13" stroke-linecap="round" transform="translate(66.700962, 157.776279) rotate(30.000000) translate(-66.700962, -157.776279) "></path>
                <path d="M94.919873,144.119546 L83.7136299,185.941815" id="Line-4-Copy-2" stroke="#3A90F2" stroke-width="13" stroke-linecap="round" transform="translate(88.919873, 165.119546) rotate(30.000000) translate(-88.919873, -165.119546) "></path>
                <path d="M126.334936,146.50833 L119.607386,171.61589" id="Line-4-Copy-3" stroke="#3A90F2" stroke-width="13" stroke-linecap="round" transform="translate(122.834936, 159.008330) rotate(30.000000) translate(-122.834936, -159.008330) "></path>
            </g>
        </g>
    </g>
</svg>